<svg width="10" height="11" viewBox="0 0 10 11" fill="none" xmlns="http://www.w3.org/2000/svg">
<path d="M8.33331 2.16667H1.66665C1.20831 2.16667 0.83748 2.54167 0.83748 3.00001L0.833313 8C0.833313 8.45834 1.20831 8.83334 1.66665 8.83334H8.33331C8.79165 8.83334 9.16665 8.45834 9.16665 8V3.00001C9.16665 2.54167 8.79165 2.16667 8.33331 2.16667ZM8.16665 3.93751L5.22081 5.77917C5.08748 5.8625 4.91248 5.8625 4.77915 5.77917L1.83331 3.93751C1.72915 3.87084 1.66665 3.75834 1.66665 3.63751C1.66665 3.35834 1.97081 3.19167 2.20831 3.3375L4.99998 5.08334L7.79165 3.3375C8.02915 3.19167 8.33331 3.35834 8.33331 3.63751C8.33331 3.75834 8.27081 3.87084 8.16665 3.93751Z" fill="#007FAB"/>
</svg>
