<svg width="10" height="11" viewBox="0 0 10 11" fill="none" xmlns="http://www.w3.org/2000/svg">
<path fill-rule="evenodd" clip-rule="evenodd" d="M5.00414 0.5C2.23698 0.5 0 2.75347 0 5.54132C0 7.7698 1.43331 9.65615 3.42169 10.3238C3.67029 10.374 3.76135 10.2153 3.76135 10.0819C3.76135 9.96498 3.75315 9.56438 3.75315 9.14697C2.36112 9.4475 2.07125 8.54601 2.07125 8.54601C1.84754 7.96175 1.51607 7.81159 1.51607 7.81159C1.06046 7.50276 1.54926 7.50276 1.54926 7.50276C2.05465 7.53615 2.31984 8.02024 2.31984 8.02024C2.76716 8.78806 3.48796 8.57111 3.77794 8.43754C3.81932 8.11202 3.95197 7.88667 4.09281 7.7615C2.98257 7.64463 1.81445 7.21063 1.81445 5.27418C1.81445 4.72331 2.01317 4.27262 2.32804 3.9221C2.27836 3.79693 2.10433 3.27935 2.37782 2.58661C2.37782 2.58661 2.80035 2.45304 3.75305 3.10409C4.16094 2.99374 4.58159 2.9376 5.00414 2.93713C5.42666 2.93713 5.85738 2.99562 6.25512 3.10409C7.20793 2.45304 7.63045 2.58661 7.63045 2.58661C7.90394 3.27935 7.72981 3.79693 7.68013 3.9221C8.0033 4.27262 8.19382 4.72331 8.19382 5.27418C8.19382 7.21063 7.0257 7.63623 5.90716 7.7615C6.08949 7.92006 6.24682 8.22049 6.24682 8.69628C6.24682 9.37232 6.23863 9.91489 6.23863 10.0818C6.23863 10.2153 6.32979 10.374 6.57829 10.3239C8.56667 9.65605 9.99998 7.7698 9.99998 5.54132C10.0082 2.75347 7.763 0.5 5.00414 0.5Z" fill="#007FAB"/>
</svg>
