<svg width="10" height="11" viewBox="0 0 10 11" fill="none" xmlns="http://www.w3.org/2000/svg">
<path d="M5.00002 1.40053C3.25002 1.40053 1.66669 2.74219 1.66669 4.81719C1.66669 6.14219 2.68752 7.70053 4.72502 9.49636C4.88335 9.63386 5.12085 9.63386 5.27919 9.49636C7.31252 7.70053 8.33335 6.14219 8.33335 4.81719C8.33335 2.74219 6.75002 1.40053 5.00002 1.40053ZM5.00002 5.56719C4.54169 5.56719 4.16669 5.19219 4.16669 4.73386C4.16669 4.27553 4.54169 3.90053 5.00002 3.90053C5.45835 3.90053 5.83335 4.27553 5.83335 4.73386C5.83335 5.19219 5.45835 5.56719 5.00002 5.56719Z" fill="#007FAB"/>
</svg>
